<?xml version="1.0" standalone="no"?>
<!DOCTYPE svg PUBLIC "-//W3C//DTD SVG 20010904//EN"
 "http://www.w3.org/TR/2001/REC-SVG-20010904/DTD/svg10.dtd">
<svg version="1.0" xmlns="http://www.w3.org/2000/svg"
 width="1078.000000pt" height="917.000000pt" viewBox="0 0 1078.000000 917.000000"
 preserveAspectRatio="xMidYMid meet">

<g transform="translate(0.000000,917.000000) scale(0.100000,-0.100000)"
fill="#000000" stroke="none">
    <path d="M4255 8941 l-180 -106 -183 102 c-100 57 -187 103 -191 103 -9 0
    -1669 -1015 -1685 -1030 -9 -9 -7 68 -137 -4588 -50 -1805 -88 -3289 -85
    -3298 5 -13 339 -14 2943 -13 l2938 2 405 244 c223 134 586 353 807 486 222
    133 403 248 403 255 0 29 -869 7545 -873 7548 -1 1 -140 92 -308 202 l-306
    199 -182 -103 c-100 -57 -186 -104 -191 -104 -5 0 -82 41 -170 91 -89 49 -172
    95 -185 101 -22 10 -37 1 -160 -91 l-135 -101 -182 100 c-99 55 -185 100 -190
    100 -4 0 -76 -44 -159 -99 l-151 -98 -175 102 -175 103 -163 -104 -162 -104
    -182 100 c-100 55 -186 100 -191 100 -5 0 -77 -43 -159 -95 l-151 -95 -144
    100 c-80 55 -149 100 -153 99 -4 0 -89 -49 -188 -108z m3634 -1871 c136 -1175
    651 -5553 655 -5582 5 -25 -8 -34 -316 -212 -177 -102 -322 -185 -324 -184 -1
    2 -23 311 -48 688 -204 3024 -331 4912 -360 5335 -19 275 -31 501 -27 503 3 1
    78 42 166 91 133 74 161 86 167 72 3 -9 43 -329 87 -711z m-4657 211 l177
    -101 164 104 164 103 164 -99 c90 -55 167 -100 170 -101 3 -1 77 43 164 98 87
    55 160 99 164 98 3 -1 80 -46 170 -101 l164 -99 170 102 170 102 170 -102 170
    -102 170 102 170 102 146 -84 c80 -47 158 -92 172 -101 26 -15 30 -13 193 87
    l166 103 48 -28 c26 -15 102 -60 169 -101 121 -73 122 -75 127 -116 3 -23 56
    -782 116 -1687 61 -905 156 -2303 211 -3108 54 -805 99 -1472 99 -1483 0 -19
    -39 -19 -2330 -19 l-2330 0 0 102 c0 55 9 414 20 797 26 894 60 2111 110 3921
    22 795 41 1460 43 1479 2 33 9 39 167 137 91 56 167 100 170 99 3 -1 85 -48
    182 -104z"/>
    
    <!-- Círculo rojo en la esquina superior derecha -->
    <circle cx="930" cy="50" r="50" fill="red" />

</g>
</svg>
